<svg width="400" height="240" viewBox="0 0 400 240" fill="none" xmlns="http://www.w3.org/2000/svg">
<rect width="400" height="240" fill="#E64343"/>
<path d="M29.296 41.982V43.854H30.682C34.246 43.854 36.262 43.782 38.404 43.296L38.152 41.442C36.046 41.874 34.156 41.982 30.682 41.982H29.296ZM29.296 36.798V43.026H31.672V38.67H36.748V36.798H29.296ZM39.448 35.934V44.214H41.842V35.934H39.448ZM41.176 39.066V41.01H44.056V39.066H41.176ZM30.826 44.898V46.77H39.484V47.742H30.862V51.504H33.238V49.506H41.842V44.898H30.826ZM30.862 50.532V52.422H42.328V50.532H30.862ZM46.8266 37.338V39.264H57.3926V37.338H46.8266ZM45.2966 48.66V50.604H60.3626V48.66H45.2966ZM50.6246 42.936V49.614H53.0186V42.936H50.6246ZM56.5286 37.338V38.94C56.5286 40.938 56.5286 43.35 55.8626 46.662L58.2566 46.932C58.9226 43.368 58.9226 41.028 58.9226 38.94V37.338H56.5286ZM74.2752 42.234V44.196H77.2092V42.234H74.2752ZM72.4932 35.916V52.584H74.9052V35.916H72.4932ZM62.3412 37.518V47.868H64.7352V37.518H62.3412ZM62.3412 46.536V48.516H63.7812C66.2292 48.516 68.9112 48.372 71.6652 47.796L71.4132 45.834C68.7312 46.374 66.1572 46.536 63.7812 46.536H62.3412ZM85.0558 42.072V43.998H87.7918V42.072H85.0558ZM90.4378 35.934V52.602H92.7238V35.934H90.4378ZM87.0358 36.186V51.846H89.2858V36.186H87.0358ZM82.1398 37.104C79.9438 37.104 78.5398 39.39 78.5398 43.152C78.5398 46.932 79.9438 49.218 82.1398 49.218C84.3538 49.218 85.7758 46.932 85.7758 43.152C85.7758 39.39 84.3538 37.104 82.1398 37.104ZM82.1398 39.354C83.0758 39.354 83.5978 40.614 83.5978 43.152C83.5978 45.708 83.0758 46.95 82.1398 46.95C81.2398 46.95 80.7178 45.708 80.7178 43.152C80.7178 40.614 81.2398 39.354 82.1398 39.354ZM103.36 41.136V43.062H107.752V41.136H103.36ZM98.8244 37.212V39.624C98.8244 42.792 97.5644 46.014 94.7204 47.328L96.2144 49.254C99.3464 47.688 100.768 43.818 100.768 39.624V37.212H98.8244ZM99.3284 37.212V39.624C99.3284 43.782 100.642 47.454 103.774 48.966L105.196 47.058C102.442 45.834 101.236 42.792 101.236 39.624V37.212H99.3284ZM106.564 35.916V52.638H108.94V35.916H106.564ZM119.299 45.402V49.776H121.675V45.402H119.299ZM124.609 45.402V49.776H126.985V45.402H124.609ZM115.609 48.732V50.694H130.693V48.732H115.609ZM121.783 36.834V38.022C121.783 40.254 119.749 42.684 115.933 43.278L116.905 45.24C121.297 44.502 123.871 41.496 123.871 38.022V36.834H121.783ZM122.251 36.834V38.022C122.251 41.532 124.825 44.484 129.235 45.24L130.207 43.278C126.355 42.684 124.339 40.29 124.339 38.022V36.834H122.251ZM132.87 37.176V39.102H141.852V37.176H132.87ZM132.69 45.312C135.444 45.312 139.296 45.24 142.644 44.61L142.464 42.882C139.188 43.314 135.228 43.368 132.438 43.368L132.69 45.312ZM134.184 38.706V44.268H136.47V38.706H134.184ZM138.216 38.706V44.268H140.538V38.706H138.216ZM143.598 35.952V45.978H146.01V35.952H143.598ZM140.394 46.302C136.866 46.302 134.706 47.454 134.706 49.434C134.706 51.45 136.866 52.602 140.394 52.602C143.922 52.602 146.118 51.45 146.118 49.434C146.118 47.454 143.922 46.302 140.394 46.302ZM140.394 48.12C142.59 48.12 143.724 48.552 143.724 49.434C143.724 50.352 142.59 50.784 140.394 50.784C138.216 50.784 137.082 50.352 137.082 49.434C137.082 48.552 138.216 48.12 140.394 48.12ZM150.472 43.368V45.276H162.19V43.368H150.472ZM148.726 48.768V50.73H163.81V48.768H148.726ZM155.044 44.232V49.398H157.438V44.232H155.044ZM150.472 37.068V44.196H152.866V38.994H162.064V37.068H150.472ZM180.073 35.934V45.978H182.467V35.934H180.073ZM181.801 40.038V42H184.681V40.038H181.801ZM171.631 46.698V52.422H182.467V46.698H171.631ZM180.127 48.588V50.532H173.989V48.588H180.127ZM169.345 37.428V39.318H179.155V37.428H169.345ZM174.259 39.804C171.829 39.804 170.155 41.028 170.155 42.81C170.155 44.61 171.829 45.798 174.259 45.798C176.671 45.798 178.345 44.61 178.345 42.81C178.345 41.028 176.671 39.804 174.259 39.804ZM174.259 41.586C175.321 41.586 176.059 42 176.059 42.81C176.059 43.62 175.321 44.052 174.259 44.052C173.179 44.052 172.459 43.62 172.459 42.81C172.459 42 173.179 41.586 174.259 41.586ZM173.053 35.826V38.454H175.447V35.826H173.053ZM187.938 37.824V38.022C187.938 42.144 187.596 45.042 185.652 48.102L187.488 49.092C189.558 45.78 189.954 42.054 189.954 37.824H187.938ZM186.192 37.824V39.75H189.216V37.824H186.192ZM191.664 37.824V38.04C191.664 42.198 191.484 45.582 189.36 48.894L191.196 49.902C193.428 46.338 193.68 42.18 193.68 37.824H191.664ZM190.458 37.824V39.75H193.014V37.824H190.458ZM198.09 35.934V52.602H200.376V35.934H198.09ZM192.87 42.18V44.106H195.228V42.18H192.87ZM194.868 36.294V51.864H197.1V36.294H194.868ZM217.232 35.934V52.602H219.608V35.934H217.232ZM219.068 42.432V44.43H222.02V42.432H219.068ZM206.468 38.4V40.308H216.17V38.4H206.468ZM211.346 41.244C208.916 41.244 207.116 42.9 207.116 45.222C207.116 47.544 208.916 49.2 211.346 49.2C213.776 49.2 215.576 47.544 215.576 45.222C215.576 42.9 213.776 41.244 211.346 41.244ZM211.346 43.188C212.48 43.188 213.29 43.944 213.29 45.222C213.29 46.5 212.48 47.256 211.346 47.256C210.212 47.256 209.402 46.5 209.402 45.222C209.402 43.944 210.212 43.188 211.346 43.188ZM210.14 36.204V39.12H212.534V36.204H210.14ZM229.669 41.532V43.476H232.423V41.532H229.669ZM226.105 37.374V40.182C226.105 43.008 225.241 45.978 222.793 47.49L224.233 49.29C226.897 47.652 227.941 43.962 227.941 40.182V37.374H226.105ZM226.627 37.374V40.074C226.627 43.674 227.455 47.274 230.101 48.912L231.397 47.04C229.129 45.564 228.427 42.792 228.427 40.074V37.374H226.627ZM235.141 35.934V52.602H237.427V35.934H235.141ZM231.757 36.186V51.846H233.989V36.186H231.757ZM242.988 44.394V49.074H245.364V44.394H242.988ZM249.036 44.394V49.074H251.43V44.394H249.036ZM239.676 48.732V50.676H254.76V48.732H239.676ZM247.2 36.744C243.6 36.744 240.972 38.508 240.972 41.226C240.972 43.944 243.6 45.69 247.2 45.69C250.782 45.69 253.428 43.944 253.428 41.226C253.428 38.508 250.782 36.744 247.2 36.744ZM247.2 38.616C249.521 38.616 251.07 39.57 251.07 41.226C251.07 42.864 249.521 43.836 247.2 43.836C244.878 43.836 243.33 42.864 243.33 41.226C243.33 39.57 244.878 38.616 247.2 38.616ZM257.962 46.464H259.69L260.068 39.822L260.14 37.32H257.494L257.566 39.822L257.962 46.464ZM258.808 51.252C259.762 51.252 260.464 50.514 260.464 49.524C260.464 48.534 259.762 47.814 258.808 47.814C257.872 47.814 257.17 48.534 257.17 49.524C257.17 50.514 257.872 51.252 258.808 51.252Z" fill="white"/>
<path d="M29.296 66.982V68.854H30.682C34.246 68.854 36.262 68.782 38.404 68.296L38.152 66.442C36.046 66.874 34.156 66.982 30.682 66.982H29.296ZM29.296 61.798V68.026H31.672V63.67H36.748V61.798H29.296ZM39.448 60.934V69.214H41.842V60.934H39.448ZM41.176 64.066V66.01H44.056V64.066H41.176ZM30.826 69.898V71.77H39.484V72.742H30.862V76.504H33.238V74.506H41.842V69.898H30.826ZM30.862 75.532V77.422H42.328V75.532H30.862ZM46.8266 62.338V64.264H57.3926V62.338H46.8266ZM45.2966 73.66V75.604H60.3626V73.66H45.2966ZM50.6246 67.936V74.614H53.0186V67.936H50.6246ZM56.5286 62.338V63.94C56.5286 65.938 56.5286 68.35 55.8626 71.662L58.2566 71.932C58.9226 68.368 58.9226 66.028 58.9226 63.94V62.338H56.5286ZM74.2752 67.234V69.196H77.2092V67.234H74.2752ZM72.4932 60.916V77.584H74.9052V60.916H72.4932ZM62.3412 62.518V72.868H64.7352V62.518H62.3412ZM62.3412 71.536V73.516H63.7812C66.2292 73.516 68.9112 73.372 71.6652 72.796L71.4132 70.834C68.7312 71.374 66.1572 71.536 63.7812 71.536H62.3412ZM94.6599 60.934V77.602H96.9459V60.934H94.6599ZM89.7819 67V69.106H92.0139V67H89.7819ZM91.3479 61.258V76.828H93.5979V61.258H91.3479ZM82.5999 62.806V64.714H90.1779V62.806H82.5999ZM82.5639 73.822C84.6159 73.822 87.9999 73.768 90.5919 73.21L90.4299 71.482C87.9099 71.824 84.3999 71.878 82.3119 71.878L82.5639 73.822ZM83.6259 64.03V72.382H85.7679V64.03H83.6259ZM86.9739 64.03V72.382H89.1339V64.03H86.9739ZM110.463 60.916V77.638H112.875V60.916H110.463ZM103.893 62.086C101.373 62.086 99.5185 64.39 99.5185 68.026C99.5185 71.698 101.373 74.002 103.893 74.002C106.413 74.002 108.267 71.698 108.267 68.026C108.267 64.39 106.413 62.086 103.893 62.086ZM103.893 64.264C105.135 64.264 105.963 65.578 105.963 68.026C105.963 70.51 105.135 71.842 103.893 71.842C102.651 71.842 101.805 70.51 101.805 68.026C101.805 65.578 102.651 64.264 103.893 64.264ZM115.609 73.822V75.766H130.693V73.822H115.609ZM121.927 70.672V74.614H124.321V70.672H121.927ZM117.301 62.014V63.904H126.625V65.686H117.337V70.366H119.713V67.558H129.001V62.014H117.301ZM117.337 69.412V71.338H129.379V69.412H117.337ZM136.246 73.732V75.676H151.33V73.732H136.246ZM142.582 70.042V74.272H144.976V70.042H142.582ZM142.51 63.112V63.706C142.51 66.01 140.53 68.314 136.822 68.89L137.758 70.78C142.006 70.006 144.526 67.216 144.526 63.706V63.112H142.51ZM142.996 63.112V63.706C142.996 67.216 145.552 69.934 149.872 70.69L150.79 68.8C146.992 68.242 145.012 66.01 145.012 63.706V63.112H142.996ZM137.488 62.194V64.102H150.034V62.194H137.488ZM154.64 61.672V63.58H165.206V61.672H154.64ZM152.804 67.666V69.574H167.888V67.666H152.804ZM163.766 61.672V63.004C163.766 64.426 163.766 65.956 163.244 68.116L165.62 68.152C166.124 65.992 166.124 64.444 166.124 63.004V61.672H163.766ZM154.568 71.32V77.422H166.052V71.32H154.568ZM163.694 73.174V75.532H156.908V73.174H163.694ZM174.215 71.662V73.624H175.565C178.607 73.624 180.605 73.534 182.837 73.12L182.603 71.194C180.443 71.59 178.517 71.662 175.565 71.662H174.215ZM174.215 62.41V72.4H176.609V64.318H181.757V62.41H174.215ZM185.033 60.934V77.656H187.427V60.934H185.033ZM180.947 66.676V68.62H186.041V66.676H180.947ZM205.652 60.916V77.638H208.046V60.916H205.652ZM202.736 66.748V68.674H206.21V66.748H202.736ZM197.912 63.562V65.038C197.912 68.134 196.598 71.32 193.808 72.634L195.212 74.524C198.326 72.994 199.802 69.106 199.802 65.038V63.562H197.912ZM198.47 63.562V65.038C198.47 68.98 199.91 72.706 203.042 74.182L204.428 72.31C201.638 71.05 200.342 67.972 200.342 65.038V63.562H198.47ZM194.492 62.536V64.462H203.762V62.536H194.492ZM213.39 71.446V77.422H224.568V71.446H213.39ZM222.21 73.318V75.532H215.748V73.318H222.21ZM222.174 60.952V70.726H224.568V60.952H222.174ZM219.51 63.022V64.93H222.606V63.022H219.51ZM211.248 68.404V70.33H212.526C215.874 70.33 217.494 70.312 219.366 69.97L219.168 68.08C217.332 68.368 215.802 68.404 212.526 68.404H211.248ZM211.23 61.672V63.58H216.18V65.056H211.248V69.88H213.624V66.82H218.556V61.672H211.23ZM219.51 66.46V68.368H222.606V66.46H219.51ZM237.905 60.952V73.408H240.299V60.952H237.905ZM239.615 66.028V67.99H242.513V66.028H239.615ZM227.177 62.68V64.552H236.987V62.68H227.177ZM232.091 65.146C229.679 65.146 227.987 66.46 227.987 68.368C227.987 70.276 229.679 71.572 232.091 71.572C234.485 71.572 236.177 70.276 236.177 68.368C236.177 66.46 234.485 65.146 232.091 65.146ZM232.091 66.964C233.153 66.964 233.891 67.468 233.891 68.368C233.891 69.268 233.153 69.754 232.091 69.754C231.029 69.754 230.291 69.268 230.291 68.368C230.291 67.468 231.029 66.964 232.091 66.964ZM230.885 60.916V63.598H233.279V60.916H230.885ZM229.553 75.406V77.314H240.893V75.406H229.553ZM229.553 72.472V76.234H231.947V72.472H229.553ZM258.47 60.916V77.584H260.882V60.916H258.47ZM260.252 67.288V69.25H263.186V67.288H260.252ZM254.096 62.644V63.058C254.096 67.576 252.026 70.636 247.652 72.904L248.984 74.722C254.528 71.932 256.436 67.648 256.436 62.644H254.096ZM248.57 62.644V64.57H255.32V62.644H248.57ZM270.708 61.978V63.166C270.708 65.722 268.638 67.882 264.552 68.944L265.452 70.816C270.438 69.502 273.21 66.46 273.21 61.978H270.708ZM265.488 61.978V63.886H272.256V61.978H265.488ZM266.964 71.536V73.408H275.928V77.548H278.322V71.536H266.964ZM275.928 60.934V70.834H278.322V60.934H275.928ZM272.418 63.616V65.506H276.324V63.616H272.418ZM272.256 67.162V69.07H276.18V67.162H272.256ZM288.473 61.762C284.963 61.762 282.245 63.688 282.245 66.586C282.245 69.502 284.963 71.41 288.473 71.41C291.983 71.41 294.701 69.502 294.701 66.586C294.701 63.688 291.983 61.762 288.473 61.762ZM288.473 63.706C290.741 63.706 292.361 64.786 292.361 66.586C292.361 68.368 290.741 69.448 288.473 69.448C286.205 69.448 284.585 68.368 284.585 66.586C284.585 64.786 286.205 63.706 288.473 63.706ZM280.949 73.642V75.604H296.033V73.642H280.949ZM297.508 73.822V75.766H312.592V73.822H297.508ZM303.826 70.672V74.614H306.22V70.672H303.826ZM299.2 62.014V63.904H308.524V65.686H299.236V70.366H301.612V67.558H310.9V62.014H299.2ZM299.236 69.412V71.338H311.278V69.412H299.236ZM315.794 71.464H317.522L317.9 64.822L317.972 62.32H315.326L315.398 64.822L315.794 71.464ZM316.64 76.252C317.594 76.252 318.296 75.514 318.296 74.524C318.296 73.534 317.594 72.814 316.64 72.814C315.704 72.814 315.002 73.534 315.002 74.524C315.002 75.514 315.704 76.252 316.64 76.252Z" fill="white"/>
<path d="M326.215 157.438C322.589 157.438 307.021 157.789 297 172.714V157.438C297 148.028 289.263 140.375 279.75 140.375C276.575 140.375 274 142.922 274 146.062C274 149.203 276.575 151.75 279.75 151.75C282.92 151.75 285.5 154.302 285.5 157.438V202.938C285.5 209.212 290.657 214.312 297 214.312H328.625C330.213 214.312 331.5 213.04 331.5 211.469V208.625C331.5 205.484 328.925 202.938 325.75 202.938H320L343 185.875V211.469C343 213.04 344.287 214.312 345.875 214.312H351.625C353.213 214.312 354.5 213.04 354.5 211.469V174.831C352.651 175.305 350.746 175.637 348.75 175.637C337.644 175.637 328.352 167.808 326.215 157.438V157.438ZM354.5 140.375H343L331.5 129V152.887C331.5 162.311 339.223 169.95 348.75 169.95C358.277 169.95 366 162.311 366 152.887V129L354.5 140.375ZM341.562 154.594C339.974 154.594 338.688 153.321 338.688 151.75C338.688 150.179 339.974 148.906 341.562 148.906C343.151 148.906 344.438 150.179 344.438 151.75C344.438 153.321 343.151 154.594 341.562 154.594ZM355.938 154.594C354.349 154.594 353.062 153.321 353.062 151.75C353.062 150.179 354.349 148.906 355.938 148.906C357.526 148.906 358.812 150.179 358.812 151.75C358.812 153.321 357.526 154.594 355.938 154.594Z" fill="white"/>
</svg>
